<svg width="675" height="675" viewBox="0 0 675 675" fill="none" xmlns="http://www.w3.org/2000/svg">
<circle cx="337.5" cy="337.5" r="337.5" fill="#F1EAEA"/>
<path fill-rule="evenodd" clip-rule="evenodd" d="M375.75 344H494.75L391.25 424.5H272.881L375.75 344ZM341.75 344H197.25L180.25 424.5H238.881L341.75 344Z" fill="#E12D2C"/>
<path d="M493.25 139H209.75L192.25 220H219.25L180.25 424.5H240.75L342.75 344H281.25L305.25 220H477.25L493.25 139Z" fill="black"/>
<path d="M153.749 523.01C151.029 523.01 148.496 522.568 146.15 521.684C143.838 520.766 141.815 519.491 140.081 517.859C138.381 516.193 137.055 514.238 136.103 511.994C135.151 509.75 134.675 507.302 134.675 504.65C134.675 501.998 135.151 499.55 136.103 497.306C137.055 495.062 138.398 493.124 140.132 491.492C141.866 489.826 143.889 488.551 146.201 487.667C148.513 486.749 151.046 486.29 153.8 486.29C156.724 486.29 159.393 486.8 161.807 487.82C164.221 488.806 166.261 490.285 167.927 492.257L163.643 496.286C162.351 494.892 160.906 493.855 159.308 493.175C157.71 492.461 155.976 492.104 154.106 492.104C152.236 492.104 150.519 492.41 148.955 493.022C147.425 493.634 146.082 494.501 144.926 495.623C143.804 496.745 142.92 498.071 142.274 499.601C141.662 501.131 141.356 502.814 141.356 504.65C141.356 506.486 141.662 508.169 142.274 509.699C142.92 511.229 143.804 512.555 144.926 513.677C146.082 514.799 147.425 515.666 148.955 516.278C150.519 516.89 152.236 517.196 154.106 517.196C155.976 517.196 157.71 516.856 159.308 516.176C160.906 515.462 162.351 514.391 163.643 512.963L167.927 517.043C166.261 518.981 164.221 520.46 161.807 521.48C159.393 522.5 156.707 523.01 153.749 523.01ZM207.302 522.857C204.514 522.857 202.032 522.262 199.856 521.072C197.68 519.848 195.963 518.182 194.705 516.074C193.447 513.966 192.818 511.569 192.818 508.883C192.818 506.163 193.447 503.766 194.705 501.692C195.963 499.584 197.68 497.935 199.856 496.745C202.032 495.555 204.514 494.96 207.302 494.96C210.124 494.96 212.623 495.555 214.799 496.745C217.009 497.935 218.726 499.567 219.95 501.641C221.208 503.715 221.837 506.129 221.837 508.883C221.837 511.569 221.208 513.966 219.95 516.074C218.726 518.182 217.009 519.848 214.799 521.072C212.623 522.262 210.124 522.857 207.302 522.857ZM207.302 517.4C208.866 517.4 210.26 517.06 211.484 516.38C212.708 515.7 213.66 514.714 214.34 513.422C215.054 512.13 215.411 510.617 215.411 508.883C215.411 507.115 215.054 505.602 214.34 504.344C213.66 503.052 212.708 502.066 211.484 501.386C210.26 500.706 208.883 500.366 207.353 500.366C205.789 500.366 204.395 500.706 203.171 501.386C201.981 502.066 201.029 503.052 200.315 504.344C199.601 505.602 199.244 507.115 199.244 508.883C199.244 510.617 199.601 512.13 200.315 513.422C201.029 514.714 201.981 515.7 203.171 516.38C204.395 517.06 205.772 517.4 207.302 517.4ZM261.899 522.857C259.281 522.857 256.918 522.279 254.81 521.123C252.736 519.933 251.104 518.301 249.914 516.227C248.724 514.153 248.129 511.705 248.129 508.883C248.129 506.061 248.724 503.613 249.914 501.539C251.104 499.465 252.736 497.85 254.81 496.694C256.918 495.538 259.281 494.96 261.899 494.96C264.177 494.96 266.217 495.47 268.019 496.49C269.821 497.476 271.249 498.989 272.303 501.029C273.357 503.069 273.884 505.687 273.884 508.883C273.884 512.045 273.374 514.663 272.354 516.737C271.334 518.777 269.923 520.307 268.121 521.327C266.319 522.347 264.245 522.857 261.899 522.857ZM262.664 517.4C264.194 517.4 265.554 517.06 266.744 516.38C267.968 515.7 268.937 514.714 269.651 513.422C270.399 512.13 270.773 510.617 270.773 508.883C270.773 507.115 270.399 505.602 269.651 504.344C268.937 503.052 267.968 502.066 266.744 501.386C265.554 500.706 264.194 500.366 262.664 500.366C261.134 500.366 259.757 500.706 258.533 501.386C257.343 502.066 256.374 503.052 255.626 504.344C254.912 505.602 254.555 507.115 254.555 508.883C254.555 510.617 254.912 512.13 255.626 513.422C256.374 514.714 257.343 515.7 258.533 516.38C259.757 517.06 261.134 517.4 262.664 517.4ZM270.926 522.5V516.074L271.181 508.832L270.671 501.59V484.658H276.995V522.5H270.926ZM320.627 522.857C317.601 522.857 314.949 522.262 312.671 521.072C310.427 519.848 308.676 518.182 307.418 516.074C306.194 513.966 305.582 511.569 305.582 508.883C305.582 506.163 306.177 503.766 307.367 501.692C308.591 499.584 310.257 497.935 312.365 496.745C314.507 495.555 316.938 494.96 319.658 494.96C322.31 494.96 324.673 495.538 326.747 496.694C328.821 497.85 330.453 499.482 331.643 501.59C332.833 503.698 333.428 506.18 333.428 509.036C333.428 509.308 333.411 509.614 333.377 509.954C333.377 510.294 333.36 510.617 333.326 510.923H310.631V506.69H329.96L327.461 508.016C327.495 506.452 327.172 505.075 326.492 503.885C325.812 502.695 324.877 501.76 323.687 501.08C322.531 500.4 321.188 500.06 319.658 500.06C318.094 500.06 316.717 500.4 315.527 501.08C314.371 501.76 313.453 502.712 312.773 503.936C312.127 505.126 311.804 506.537 311.804 508.169V509.189C311.804 510.821 312.178 512.266 312.926 513.524C313.674 514.782 314.728 515.751 316.088 516.431C317.448 517.111 319.012 517.451 320.78 517.451C322.31 517.451 323.687 517.213 324.911 516.737C326.135 516.261 327.223 515.513 328.175 514.493L331.592 518.42C330.368 519.848 328.821 520.953 326.951 521.735C325.115 522.483 323.007 522.857 320.627 522.857ZM365.014 522.5V492.41H353.182V486.8H383.476V492.41H371.644V522.5H365.014ZM420.292 522.857C417.266 522.857 414.614 522.262 412.336 521.072C410.092 519.848 408.341 518.182 407.083 516.074C405.859 513.966 405.247 511.569 405.247 508.883C405.247 506.163 405.842 503.766 407.032 501.692C408.256 499.584 409.922 497.935 412.03 496.745C414.172 495.555 416.603 494.96 419.323 494.96C421.975 494.96 424.338 495.538 426.412 496.694C428.486 497.85 430.118 499.482 431.308 501.59C432.498 503.698 433.093 506.18 433.093 509.036C433.093 509.308 433.076 509.614 433.042 509.954C433.042 510.294 433.025 510.617 432.991 510.923H410.296V506.69H429.625L427.126 508.016C427.16 506.452 426.837 505.075 426.157 503.885C425.477 502.695 424.542 501.76 423.352 501.08C422.196 500.4 420.853 500.06 419.323 500.06C417.759 500.06 416.382 500.4 415.192 501.08C414.036 501.76 413.118 502.712 412.438 503.936C411.792 505.126 411.469 506.537 411.469 508.169V509.189C411.469 510.821 411.843 512.266 412.591 513.524C413.339 514.782 414.393 515.751 415.753 516.431C417.113 517.111 418.677 517.451 420.445 517.451C421.975 517.451 423.352 517.213 424.576 516.737C425.8 516.261 426.888 515.513 427.84 514.493L431.257 518.42C430.033 519.848 428.486 520.953 426.616 521.735C424.78 522.483 422.672 522.857 420.292 522.857ZM477.688 522.5V516.992L477.331 515.819V506.18C477.331 504.31 476.77 502.865 475.648 501.845C474.526 500.791 472.826 500.264 470.548 500.264C469.018 500.264 467.505 500.502 466.009 500.978C464.547 501.454 463.306 502.117 462.286 502.967L459.787 498.326C461.249 497.204 462.983 496.371 464.989 495.827C467.029 495.249 469.137 494.96 471.313 494.96C475.257 494.96 478.3 495.912 480.442 497.816C482.618 499.686 483.706 502.593 483.706 506.537V522.5H477.688ZM469.12 522.857C467.08 522.857 465.295 522.517 463.765 521.837C462.235 521.123 461.045 520.154 460.195 518.93C459.379 517.672 458.971 516.261 458.971 514.697C458.971 513.167 459.328 511.79 460.042 510.566C460.79 509.342 461.997 508.373 463.663 507.659C465.329 506.945 467.539 506.588 470.293 506.588H478.198V510.821H470.752C468.576 510.821 467.114 511.178 466.366 511.892C465.618 512.572 465.244 513.422 465.244 514.442C465.244 515.598 465.703 516.516 466.621 517.196C467.539 517.876 468.814 518.216 470.446 518.216C472.01 518.216 473.404 517.859 474.628 517.145C475.886 516.431 476.787 515.377 477.331 513.983L478.402 517.808C477.79 519.406 476.685 520.647 475.087 521.531C473.523 522.415 471.534 522.857 469.12 522.857ZM519.53 516.431L519.683 508.424L533.912 495.266H541.562L529.475 507.404L526.109 510.209L519.53 516.431ZM514.328 522.5V484.658H520.703V522.5H514.328ZM534.881 522.5L524.936 510.209L528.965 505.109L542.633 522.5H534.881Z" fill="black"/>
</svg>
