<?xml version="1.0" encoding="UTF-8"?>
<svg id="Layer_1" data-name="Layer 1" xmlns="http://www.w3.org/2000/svg" viewBox="0 0 470.88 190.98">
  <defs>
    <style>
      .cls-1 {
        stroke-width: 0px;
      }

      .cls-1, .cls-2 {
        fill: #506036;
      }

      .cls-2 {
        font-family: cinemasundaydemofont-Regular, 'cinema sunday demo font';
        font-size: 10.7px;
      }
    </style>
  </defs>
  <text class="cls-2" transform="translate(387.59 51.58) rotate(-26.16)"><tspan x="0" y="0">W</tspan></text>
  <text class="cls-2" transform="translate(398.33 47.1) rotate(-9.09)"><tspan x="0" y="0">E</tspan></text>
  <text class="cls-2" transform="translate(406.96 46.24) rotate(2.99)"><tspan x="0" y="0"> </tspan></text>
  <text class="cls-2" transform="translate(412.74 46.72) rotate(15.59)"><tspan x="0" y="0">C</tspan></text>
  <text class="cls-2" transform="translate(421.4 49.53) rotate(31.98)"><tspan x="0" y="0">R</tspan></text>
  <text class="cls-2" transform="translate(429.84 55.47) rotate(47.77)"><tspan x="0" y="0">E</tspan></text>
  <text class="cls-2" transform="translate(435.34 62.04) rotate(63.4)"><tspan x="0" y="0">A</tspan></text>
  <text class="cls-2" transform="translate(439.15 70.51) rotate(78.26)"><tspan x="0" y="0">T</tspan></text>
  <text class="cls-2" transform="translate(440.55 79.49) rotate(92.99)"><tspan x="0" y="0">E</tspan></text>
  <text class="cls-2" transform="translate(439.6 88.11) rotate(105.19)"><tspan x="0" y="0"> </tspan></text>
  <text class="cls-2" transform="translate(437.78 93.7) rotate(115.73)"><tspan x="0" y="0">J</tspan></text>
  <text class="cls-2" transform="translate(434.8 99.45) rotate(129.62)"><tspan x="0" y="0">O</tspan></text>
  <text class="cls-2" transform="translate(428.06 106.82) rotate(145.91)"><tspan x="0" y="0">Y</tspan></text>
  <g>
    <path class="cls-1" d="M82.29,72.41c-.53,2.98-2.25,5.54-4.66,7.2,2.42,1.65,4.16,4.25,4.67,7.25,2.35-2.01,5.65-5.29,5.65-7.1,0-2-3.3-5.26-5.67-7.35Z"/>
    <path class="cls-1" d="M30.42,31.14c2.22.53,4.12,1.8,5.49,3.59,1.27,1.69,2.11,3.9,2.11,6.12v30.18c0,3.59,2.91,6.51,6.51,6.51h25.19c3.27,0,6.22-1.33,8.36-3.46,2.14-2.14,3.46-5.1,3.46-8.36h-18.95c-3.26,0-6.22,1.32-8.36,3.46-.28.29-.55.58-.8.89v-37.02h15.84c7.6,0,15.62,5.71,19.1,13.2l-3.8-15.1H30.42Z"/>
    <path class="cls-1" d="M69.72,81.4h-25.19c-3.59,0-6.51,2.91-6.51,6.51v23.36c0,4.65-3.17,8.66-7.61,9.72h30.61c-2.21-.53-4.22-1.8-5.49-3.59-1.37-1.69-2.11-3.81-2.11-6.13v-22.4c.25.31.52.61.8.89,2.14,2.14,5.1,3.46,8.36,3.46h18.95c0-3.27-1.32-6.22-3.46-8.36-2.14-2.14-5.09-3.46-8.36-3.46Z"/>
    <path class="cls-1" d="M211.49,68.83c-5.95,0-10.86,4.35-11.78,10.03l.08-4.75-.1-5.17-23.01-.1c2.32.63,4.22,1.9,5.49,3.59,1.37,1.8,2.11,3.91,2.11,6.23v32.62c0,4.54-3.06,8.56-7.5,9.71h30.51c-4.43-1.16-7.6-5.17-7.6-9.71v-30.49h16.87c6.6,0,11.95-5.35,11.95-11.95h-17.01Z"/>
    <path class="cls-1" d="M116.81,117.4c-1.27-1.69-2.11-3.91-2.11-6.23V31.03s-9.82,8.13-22.91,11.82c2.01,0,3.91.84,5.28,2.22s2.22,3.27,2.22,5.38v60.71c0,4.65-3.06,8.66-7.5,9.82h30.51c-2.22-.53-4.12-1.9-5.49-3.59Z"/>
    <path class="cls-1" d="M149.02,67.67c-14.78,0-26.71,12.25-26.71,27.45s11.93,27.34,26.71,27.34,26.61-12.25,26.61-27.34-11.93-27.45-26.61-27.45ZM149.02,120.67c-6.23,0-11.3-11.51-11.3-25.55s5.07-25.55,11.3-25.55,11.19,11.4,11.19,25.55-4.96,25.55-11.19,25.55Z"/>
    <path class="cls-1" d="M410.33,68.83c3.06.84,5.07,3.7,5.07,6.76,0,.74-.11,1.58-.42,2.43l-13.94,36.95-13.3-36.11c-.32-.84-.42-1.69-.42-2.53,0-3.48,2.32-6.65,5.81-7.5h-30.73c3.06.84,5.07,3.59,5.07,6.65,0,.84-.11,1.69-.42,2.53l-13.94,37.06-13.3-36.21c-.32-.84-.42-1.69-.42-2.64,0-3.38,2.22-6.55,5.81-7.39h-30.62c3.7,1.27,6.65,4.12,8.02,7.81l1.69,4.65c1.16,3.17,1.79,6.44,1.79,9.82s-.63,6.55-1.79,9.71l-5.38,14.25-13.3-36.21c-.32-.84-.42-1.69-.42-2.53,0-3.48,2.32-6.65,5.81-7.5h-30.51c3.7,1.27,6.55,4.12,7.92,7.81l16.26,44.34h16.47c-.32-1.06-.53-2.11-.53-3.17s.21-2.22.53-3.17l7.81-20.8,9.92,27.13h16.47c-.32-1.06-.53-2.11-.53-3.17s.21-2.22.53-3.17l14.57-38.75c.04-.13.11-.24.15-.37.17.36.34.73.48,1.11l16.26,44.34h3.17c3.48,0,6.12,2.85,6.12,6.12,0,.63-.21,1.37-.42,2.11l-9.08,24.07c-1.06,2.75-3.7,4.75-6.65,4.75-4.75,0-7.18-4.22-7.18-9.08,0-6.12,3.91-13.09,11.51-13.09.63,0,1.27,0,1.9.11,0,0-2.01-4.65-10.98-4.65-6.76,0-14.68,3.59-14.68,13.62,0,.42.11.95.11,1.48.53,7.92,7.92,13.51,17.53,13.51h1.48c4.65,0,7.92-3.27,9.08-6.44l29.14-77.6c1.16-3.27,3.7-5.81,6.86-7.07h-14.36Z"/>
    <path class="cls-1" d="M279.31,111.38v-22.38c0-6.44-2.58-11.53-6.69-15.12-3.83-3.34-8.84-5.04-13.92-5.04h-12.71c-1.43,0-2.78.25-4.05.7-.2.07-.41.15-.61.23-1.43.61-2.71,1.48-3.79,2.56-.51.51-.97,1.06-1.38,1.65-1.34,1.93-2.12,4.27-2.12,6.79h17.02c3.3,0,6.29-1.33,8.45-3.5.93-.93,1.7-2.01,2.29-3.21.74-1.49,1.16-2.25,1.2-4.01.81,1.19.98,3.94.98,6.51,0,1.74-.08,3.38-.08,4.41v15.12c-3.17-5.91-9.61-10.03-17.11-10.03-10.66,0-19.32,8.45-19.32,18.9s8.65,16.02,19.32,16.02h40.02c-4.33-1.16-7.5-5.07-7.5-9.6ZM263.9,119.08l-11.86-.28c-.86-.02-1.72-.12-2.55-.37-.53-.16-1.05-.38-1.53-.67-4.3-2.55-5.08-8.14-5.08-12.69,0-9.18,2.64-13.3,6.44-14.89.85-.42,1.8-.53,2.75-.53,5.71,0,11.83,7.29,11.83,15.31v14.12Z"/>
  </g>
</svg>