<svg width="519" height="85" viewBox="0 0 519 85" fill="none" xmlns="http://www.w3.org/2000/svg">
<path fill-rule="evenodd" clip-rule="evenodd" d="M5.04406 60.9701H93.3152L62.6057 84.8552H27.4845L58.0067 60.9701H47.9186L17.3964 84.8552H0L5.04406 60.9701Z" fill="#E12D2C"/>
<path d="M92.8701 0.144653H8.75293L3.56052 24.1781H11.5717L0 84.8552H17.9509L48.2153 60.9701H29.9677L37.0887 24.1781H88.1228L92.8701 0.144653Z" fill="black"/>
<path d="M135.111 68.98C131.237 68.98 127.644 68.3733 124.331 67.16C121.064 65.9 118.217 64.1267 115.791 61.84C113.411 59.5533 111.544 56.87 110.191 53.79C108.837 50.6633 108.161 47.2333 108.161 43.5C108.161 39.7667 108.837 36.36 110.191 33.28C111.544 30.1533 113.411 27.4467 115.791 25.16C118.217 22.8733 121.064 21.1233 124.331 19.91C127.644 18.65 131.237 18.02 135.111 18.02C139.637 18.02 143.674 18.8133 147.221 20.4C150.814 21.9867 153.801 24.2733 156.181 27.26L147.361 35.24C145.774 33.3733 144.024 31.95 142.111 30.97C140.244 29.99 138.144 29.5 135.811 29.5C133.804 29.5 131.961 29.8267 130.281 30.48C128.601 31.1333 127.154 32.09 125.941 33.35C124.774 34.5633 123.841 36.0333 123.141 37.76C122.487 39.4867 122.161 41.4 122.161 43.5C122.161 45.6 122.487 47.5133 123.141 49.24C123.841 50.9667 124.774 52.46 125.941 53.72C127.154 54.9333 128.601 55.8667 130.281 56.52C131.961 57.1733 133.804 57.5 135.811 57.5C138.144 57.5 140.244 57.01 142.111 56.03C144.024 55.05 145.774 53.6267 147.361 51.76L156.181 59.74C153.801 62.68 150.814 64.9667 147.221 66.6C143.674 68.1867 139.637 68.98 135.111 68.98ZM185.14 68.63C180.986 68.63 177.3 67.79 174.08 66.11C170.86 64.43 168.316 62.12 166.45 59.18C164.63 56.1933 163.72 52.7867 163.72 48.96C163.72 45.1333 164.63 41.75 166.45 38.81C168.316 35.87 170.86 33.5833 174.08 31.95C177.3 30.27 180.986 29.43 185.14 29.43C189.293 29.43 192.98 30.27 196.2 31.95C199.466 33.5833 202.01 35.87 203.83 38.81C205.65 41.75 206.56 45.1333 206.56 48.96C206.56 52.7867 205.65 56.1933 203.83 59.18C202.01 62.12 199.466 64.43 196.2 66.11C192.98 67.79 189.293 68.63 185.14 68.63ZM185.14 58.06C186.68 58.06 188.033 57.71 189.2 57.01C190.413 56.31 191.37 55.2833 192.07 53.93C192.77 52.53 193.12 50.8733 193.12 48.96C193.12 47.0467 192.77 45.4367 192.07 44.13C191.37 42.7767 190.413 41.75 189.2 41.05C188.033 40.35 186.68 40 185.14 40C183.646 40 182.293 40.35 181.08 41.05C179.913 41.75 178.956 42.7767 178.21 44.13C177.51 45.4367 177.16 47.0467 177.16 48.96C177.16 50.8733 177.51 52.53 178.21 53.93C178.956 55.2833 179.913 56.31 181.08 57.01C182.293 57.71 183.646 58.06 185.14 58.06ZM234.841 68.63C231.388 68.63 228.238 67.8367 225.391 66.25C222.591 64.6167 220.351 62.3533 218.671 59.46C216.991 56.52 216.151 53.02 216.151 48.96C216.151 44.9467 216.991 41.4933 218.671 38.6C220.351 35.66 222.591 33.3967 225.391 31.81C228.238 30.2233 231.388 29.43 234.841 29.43C238.108 29.43 240.861 30.13 243.101 31.53C245.388 32.93 247.114 35.0767 248.281 37.97C249.448 40.8633 250.031 44.5267 250.031 48.96C250.031 53.4867 249.471 57.1967 248.351 60.09C247.231 62.9833 245.551 65.13 243.311 66.53C241.071 67.93 238.248 68.63 234.841 68.63ZM237.641 58.06C239.134 58.06 240.464 57.71 241.631 57.01C242.844 56.31 243.801 55.2833 244.501 53.93C245.201 52.53 245.551 50.8733 245.551 48.96C245.551 47.0467 245.201 45.4367 244.501 44.13C243.801 42.7767 242.844 41.75 241.631 41.05C240.464 40.35 239.134 40 237.641 40C236.101 40 234.724 40.35 233.511 41.05C232.344 41.75 231.411 42.7767 230.711 44.13C230.011 45.4367 229.661 47.0467 229.661 48.96C229.661 50.8733 230.011 52.53 230.711 53.93C231.411 55.2833 232.344 56.31 233.511 57.01C234.724 57.71 236.101 58.06 237.641 58.06ZM245.971 68V61.49L246.041 48.96L245.341 36.43V16.06H258.641V68H245.971ZM292.678 68.63C288.198 68.63 284.278 67.79 280.918 66.11C277.605 64.3833 275.015 62.05 273.148 59.11C271.328 56.1233 270.418 52.74 270.418 48.96C270.418 45.18 271.305 41.82 273.078 38.88C274.898 35.8933 277.395 33.5833 280.568 31.95C283.741 30.27 287.311 29.43 291.278 29.43C295.011 29.43 298.418 30.2 301.498 31.74C304.578 33.2333 307.028 35.45 308.848 38.39C310.668 41.33 311.578 44.9 311.578 49.1C311.578 49.5667 311.555 50.1033 311.508 50.71C311.461 51.3167 311.415 51.8767 311.368 52.39H281.338V45.39H304.298L299.258 47.35C299.305 45.6233 298.978 44.13 298.278 42.87C297.625 41.61 296.691 40.63 295.478 39.93C294.311 39.23 292.935 38.88 291.348 38.88C289.761 38.88 288.361 39.23 287.148 39.93C285.981 40.63 285.071 41.6333 284.418 42.94C283.765 44.2 283.438 45.6933 283.438 47.42V49.45C283.438 51.3167 283.811 52.9267 284.558 54.28C285.351 55.6333 286.471 56.6833 287.918 57.43C289.365 58.13 291.091 58.48 293.098 58.48C294.965 58.48 296.551 58.2233 297.858 57.71C299.211 57.15 300.541 56.31 301.848 55.19L308.848 62.47C307.028 64.4767 304.788 66.0167 302.128 67.09C299.468 68.1167 296.318 68.63 292.678 68.63ZM327.944 68V29.99H312.894V19H356.784V29.99H341.804V68H327.944ZM382.97 68.63C378.49 68.63 374.57 67.79 371.21 66.11C367.896 64.3833 365.306 62.05 363.44 59.11C361.62 56.1233 360.71 52.74 360.71 48.96C360.71 45.18 361.596 41.82 363.37 38.88C365.19 35.8933 367.686 33.5833 370.86 31.95C374.033 30.27 377.603 29.43 381.57 29.43C385.303 29.43 388.71 30.2 391.79 31.74C394.87 33.2333 397.32 35.45 399.14 38.39C400.96 41.33 401.87 44.9 401.87 49.1C401.87 49.5667 401.846 50.1033 401.8 50.71C401.753 51.3167 401.706 51.8767 401.66 52.39H371.63V45.39H394.59L389.55 47.35C389.596 45.6233 389.27 44.13 388.57 42.87C387.916 41.61 386.983 40.63 385.77 39.93C384.603 39.23 383.226 38.88 381.64 38.88C380.053 38.88 378.653 39.23 377.44 39.93C376.273 40.63 375.363 41.6333 374.71 42.94C374.056 44.2 373.73 45.6933 373.73 47.42V49.45C373.73 51.3167 374.103 52.9267 374.85 54.28C375.643 55.6333 376.763 56.6833 378.21 57.43C379.656 58.13 381.383 58.48 383.39 58.48C385.256 58.48 386.843 58.2233 388.15 57.71C389.503 57.15 390.833 56.31 392.14 55.19L399.14 62.47C397.32 64.4767 395.08 66.0167 392.42 67.09C389.76 68.1167 386.61 68.63 382.97 68.63ZM435.746 68V60.93L434.836 59.18V46.16C434.836 44.06 434.183 42.45 432.876 41.33C431.616 40.1633 429.586 39.58 426.786 39.58C424.966 39.58 423.123 39.8833 421.256 40.49C419.39 41.05 417.803 41.8433 416.496 42.87L412.016 33.84C414.163 32.44 416.73 31.3667 419.716 30.62C422.75 29.8267 425.76 29.43 428.746 29.43C434.906 29.43 439.666 30.8533 443.026 33.7C446.433 36.5 448.136 40.91 448.136 46.93V68H435.746ZM424.546 68.63C421.513 68.63 418.946 68.1167 416.846 67.09C414.746 66.0633 413.136 64.6633 412.016 62.89C410.943 61.1167 410.406 59.1333 410.406 56.94C410.406 54.6067 410.99 52.6 412.156 50.92C413.37 49.1933 415.213 47.8867 417.686 47C420.16 46.0667 423.356 45.6 427.276 45.6H436.236V52.53H429.096C426.95 52.53 425.433 52.88 424.546 53.58C423.706 54.28 423.286 55.2133 423.286 56.38C423.286 57.5467 423.73 58.48 424.616 59.18C425.503 59.88 426.716 60.23 428.256 60.23C429.703 60.23 431.01 59.88 432.176 59.18C433.39 58.4333 434.276 57.3133 434.836 55.82L436.656 60.72C435.956 63.3333 434.58 65.3167 432.526 66.67C430.52 67.9767 427.86 68.63 424.546 68.63ZM473.191 61L473.541 45.11L489.011 30.06H504.761L487.611 47.77L480.821 53.23L473.191 61ZM462.131 68V16.06H475.431V68H462.131ZM489.991 68L478.371 53.44L486.631 43.22L506.091 68H489.991Z" fill="black"/>
</svg>
