<svg id="Layer_1" data-name="Layer 1" xmlns="http://www.w3.org/2000/svg" viewBox="0 0 1200 1200"><defs><style>.cls-1{fill:#6e35b7;}.cls-2{fill:#b06b54;}.cls-3{fill:#fff;}</style></defs><title>Luxigoo_Final</title><path class="cls-1" d="M223,648.72V533.82h-42.1v118.3c0,21.62,10.47,35.27,36.41,35.27h73.48V648.72Z"/><path class="cls-1" d="M372.05,573.64v51c0,14.34-5.69,26.4-18.88,26.4s-18.89-12.06-18.89-26.4v-51H293.33v56c0,33.43,19.57,61.2,59.84,61.2S413,663,413,629.61v-56Z"/><path class="cls-1" d="M475.46,589a313.43,313.43,0,0,0-26.59,30.14l-28.41-45.5h45.36Z"/><path class="cls-1" d="M537.2,687.39H491.47l-15.33-24.56a433.7,433.7,0,0,1,22.28-37.24Z"/><path class="cls-1" d="M716,614.13l.23,31.63c-6.61,5.91-14.34,7-26.62,7-23.21,0-37.76-16.16-37.76-41.4,0-24.13,14.33-41.18,35.94-41.18,17.74,0,26.39,7.74,32.75,19.34l34.36-19.12c-11.15-25.7-38-39.81-65.29-39.81-46.41,0-81,35.26-81,80.08s35,80.09,81,80.09c30.93,0,55.52-13,67.33-31.17V614.13Z"/><path class="cls-1" d="M826.59,570C791.1,570,764,597.3,764,630.29c0,33.22,27.07,60.52,62.56,60.52s62.57-27.3,62.57-60.52C889.16,597.3,862.08,570,826.59,570Zm0,82.36c-13,0-21.62-10-21.62-21.84,0-12.07,8.66-22.07,21.62-22.07s21.62,10,21.62,22.07C848.21,642.34,839.55,652.36,826.59,652.36Z"/><path class="cls-1" d="M956.49,570c-35.49,0-62.56,27.3-62.56,60.29,0,33.22,27.07,60.52,62.56,60.52s62.57-27.3,62.57-60.52C1019.06,597.3,992,570,956.49,570Zm0,82.36c-13,0-21.62-10-21.62-21.84,0-12.07,8.66-22.07,21.62-22.07s21.62,10,21.62,22.07C978.11,642.34,969.46,652.36,956.49,652.36Z"/><rect class="cls-1" x="548.82" y="573.64" width="40.95" height="113.75"/><path d="M592.26,528.38h0l0,0,0,0Z"/><path class="cls-2" d="M588.72,522.1c-13.93,2.84-34.64,9.44-44,14.79a24.76,24.76,0,0,1,24.56-24.45,24,24,0,0,1,11.79,3.09,24.74,24.74,0,0,1,3,2h0c.33.25.64.51.95.76l.82.72.66.64.46.48a4.6,4.6,0,0,1,.43.46l.28.29c.24.28.49.56.72.86l0,0a3.11,3.11,0,0,0,.23.28Z"/><path class="cls-2" d="M592.26,528.39h0l0,0h0a263.8,263.8,0,0,0-38.69,27.31c-21.84,18.5-41,40.55-57.91,65.37q-12,17.58-22.46,36.93-7.74,14.26-14.74,29.36H413.62a316.72,316.72,0,0,1,38-63.82,311.72,311.72,0,0,1,26.52-30.3A306.36,306.36,0,0,1,588.72,522.1h0a312.5,312.5,0,0,1,45-12.91A252.74,252.74,0,0,0,592.26,528.39Z"/><path d="M588.73,522.1h0l-.06-.09Z"/><path d="M592.26,528.38h0l0,0,0,0Z"/><path class="cls-3" d="M588.66,522l.06.09h0Z"/><path d="M588.73,522.1h0l-.06-.09Z"/><path class="cls-2" d="M593.86,537c0,.47,0,.94,0,1.4a24.78,24.78,0,0,1-24.53,23.16,24,24,0,0,1-11.63-3h0l1.61-1.43,0,0c5.83-5.21,12.76-11.65,19.22-17.39l0,0c5.08-4.51,9.88-8.57,13.65-11.29h0l0,0a1.34,1.34,0,0,1,.07.18c.13.35.24.7.36,1.06s.22.72.31,1.09c.22.83.4,1.68.55,2.53a23.29,23.29,0,0,1,.28,2.62C593.85,536.26,593.86,536.64,593.86,537Z"/><path d="M592.26,528.38h0l0,0,0,0Z"/></svg>